<?xml version="1.0" encoding="UTF-8"?>
<svg width="1567px" height="1567px" viewBox="0 0 1567 1567" version="1.1" xmlns="http://www.w3.org/2000/svg" xmlns:xlink="http://www.w3.org/1999/xlink">
    <!-- Generator: Sketch 47.1 (45422) - http://www.bohemiancoding.com/sketch -->
    <title>Group</title>
    <desc>Created with Sketch.</desc>
    <defs></defs>
    <g id="Page-1" stroke="none" stroke-width="1" fill="none" fill-rule="evenodd">
        <g id="Group">
            <circle id="Oval-4" fill="#000000" cx="783.5" cy="783.5" r="783.5"></circle>
            <circle id="Oval-3" stroke="#FFFFFF" stroke-width="18" fill="#000000" cx="781" cy="777" r="626"></circle>
            <path d="M877.391864,309.41235 C853.053781,313.054727 829.439133,318.367941 806.95092,324.833388 C810.351436,319.328215 815.087299,313.644179 821.158509,307.781281 C796.3376,311.967311 781.948357,320.700388 777.990779,333.98051 C776.745731,334.409351 775.505086,334.841315 774.268925,335.276301 C768.557069,320.971613 768.60278,307.747785 774.406061,295.604817 C755.79925,309.380816 748.718591,322.249248 753.164086,334.210111 C741.93148,327.43522 738.270176,317.751963 742.180174,305.160339 C726.148822,319.092107 715.546969,336.518417 710.374614,357.439267 C696.654456,346.344201 691.412616,337.609522 694.649095,331.23523 C685.264488,342.607053 675.895783,357.882482 666.542979,377.061517 C648.870067,370.944664 633.406978,367.134881 620.153711,365.632168 C626.909794,367.969203 629.206748,377.893693 627.044573,395.405638 C608.791048,383.949458 589.059381,378.778686 567.849572,379.893323 C579.409067,386.234866 583.501901,395.743774 580.128075,408.420047 C575.017182,396.728022 560.984619,392.389886 538.030386,395.405638 C552.331693,400.740239 562.271421,412.219508 567.849572,429.843447 C555.454443,417.743421 537.12391,420.009482 512.857972,436.641632 C529.314149,436.641632 541.646199,439.678971 549.854122,445.75365 C540.167952,453.830672 531.518756,462.449698 523.827735,471.099669 C523.057774,463.285317 524.109863,454.014928 526.984,443.288502 C505.107091,462.021284 498.002769,478.822815 505.671035,493.693096 C505.568171,493.834035 505.465563,493.974852 505.36321,494.115547 C490.305394,484.251043 482.063653,471.856036 480.637988,456.930526 C471.784002,478.322079 472.342425,492.999286 482.313258,500.962147 C469.195708,500.940153 461.070112,494.525692 457.936469,481.718765 C451.37031,501.917378 451.257961,522.314999 457.599421,542.911628 C440.124569,540.467704 431.132744,535.68037 430.623944,528.549625 C428.614874,541.942759 428.313578,558.152058 429.720057,577.177521 C410.717416,570.406049 394.1953,566.224264 380.153711,564.632168 C386.909794,566.969203 389.206748,576.893693 387.044573,594.405638 C368.791048,582.949458 349.059381,577.778686 327.849572,578.893323 C339.409067,585.234866 343.501901,594.743774 340.128075,607.420047 C335.017182,595.728022 320.984619,591.389886 298.030386,594.405638 C312.331693,599.740239 322.271421,611.219508 327.849572,628.843447 C315.454443,616.743421 297.12391,619.009482 272.857972,635.641632 C285.754245,635.641632 296.117708,637.506997 303.948361,641.237727 C291.023826,645.836448 277.971489,650.895637 264.791352,656.415295 C254.922645,646.712393 252.986861,630.670129 258.984,608.288502 C236.63809,627.422881 229.704951,644.542316 238.184584,659.646809 C222.604898,649.697318 214.089366,637.125224 212.637988,621.930526 C203.784002,643.322079 204.342425,657.999286 214.313258,665.962147 C201.195708,665.940153 193.070112,659.525692 189.936469,646.718765 C184.859275,662.337072 183.64078,678.074364 186.280984,693.930642 C180.935998,696.788831 175.571497,699.717334 170.187481,702.716149 C165.407662,700.284583 162.886484,697.229075 162.623944,693.549625 C161.958581,697.985156 161.480527,702.729563 161.189781,707.782847 C161.144488,707.808628 161.099194,707.834414 161.053898,707.860205 C146.034981,924.250932 213.384266,1098.02332 363.101753,1229.17737 C510.31797,1374.58799 692.637923,1425.63479 910.061611,1382.31776 C942.791052,1359.78892 970.85918,1332.36807 994.265994,1300.05521 C994.379861,1300.38191 994.502516,1300.68677 994.634079,1300.96924 C1022.22666,1264.1272 1044.77185,1260.78776 1062.26965,1290.95092 C1062.26965,1262.50725 1052.80578,1244.74402 1033.87802,1237.66123 C1059.79424,1239.69592 1078.64029,1236.43726 1090.41616,1227.88525 C1071.65182,1227.88525 1057.9263,1216.49077 1049.23959,1193.70179 C1076.69064,1196.27813 1096.54544,1188.00959 1108.804,1168.89616 C1090.13551,1176.48456 1074.62406,1173.54037 1062.26965,1160.06359 C1079.58701,1160.45964 1095.09846,1147.80006 1108.804,1122.08485 C1087.94107,1125.73165 1075.90394,1117.12022 1072.69262,1096.25056 C1073.40662,1091.77662 1074.08131,1087.26143 1074.71669,1082.70498 C1082.53657,1072.83172 1087.08468,1061.29961 1088.36103,1048.10867 C1104.74858,1056.66244 1112.07631,1065.55324 1110.34421,1074.78107 C1117.30008,1052.6993 1115.46456,1038.12665 1104.83766,1031.06311 C1117.9072,1029.94176 1126.56093,1035.62362 1130.79886,1048.10867 C1138.91132,1030.85119 1138.91132,1012.23969 1130.79886,992.274169 C1148.42021,993.185777 1156.12919,995.45296 1153.92581,999.075718 C1155.13628,979.459496 1152.24699,954.248518 1145.25794,923.442781 C1153.71614,914.394542 1163.07292,904.898376 1173.4219,894.663924 C1198.39823,863.908425 1218.37496,834.60339 1234.02806,806.717967 C1235.23069,812.407078 1235.832,818.912657 1235.832,826.234703 C1249.11418,806.856302 1253.23457,791.263129 1248.19317,779.455183 C1249.02231,777.717893 1249.83441,775.986461 1250.62965,774.260879 C1263.7755,780.119007 1272.58828,789.05281 1277.068,801.062289 C1280.08375,778.108056 1275.74561,764.075493 1264.05359,758.964601 C1276.72986,755.590774 1286.23877,759.683608 1292.58031,771.243103 C1293.69495,750.033294 1288.52418,730.301627 1277.068,712.048103 C1294.57994,709.885927 1304.50443,712.182881 1306.84147,718.938964 C1304.42426,697.62024 1296.03756,670.583655 1281.68137,637.829209 C1277.4466,469.326676 1103.45353,383.125108 1081.71652,364.528503 C1061.68819,347.393723 1045.18463,329.853883 1024.68414,318.267774 C1024.69417,318.237675 1024.70409,318.207551 1024.7139,318.177403 C982.557656,266.084887 950.034803,238.705865 927.145344,236.040339 C943.218262,250.018399 950.173633,265.763401 948.011457,283.275346 C933.328319,256.935148 904.830589,242.522909 862.518268,240.038628 C889.009751,254.049578 902.014755,272.904284 901.533279,296.602749 C896.422387,284.910724 877.5853,274.647744 845.022019,265.813809 C867.508994,275.680533 881.541557,289.425864 887.119707,307.049803 C874.724578,294.949777 862.725114,291.467425 851.121314,296.602749 C861.224861,295.010632 869.981711,299.280499 877.391864,309.41235 Z" id="Combined-Shape" stroke="#FFFFFF" fill="#FFFFFF"></path>
            <path d="M282.174698,793.11594 C279.65738,810.009481 278.781711,824.66274 279.547689,837.075718 C277.374808,833.503114 284.841738,831.248811 301.948478,830.312809 C302.08964,830.549171 302.231516,830.785741 302.374109,831.022518 C294.56344,850.704936 294.663615,869.066988 302.674634,886.108673 C306.912562,873.62362 315.566297,867.941764 328.635838,869.063105 C318.008936,876.126646 316.173419,890.6993 323.129287,912.781067 C321.397185,903.553241 328.724913,894.662443 345.112469,886.108673 C346.832998,903.890269 354.498813,918.657513 368.109912,930.410406 C368.527807,922.661964 370.600782,916.111715 374.328838,910.759659 C383.94293,931.167312 397.120342,948.368977 413.861074,962.364654 C413.091314,953.607641 415.405891,944.221395 420.804805,934.205916 C426.341303,955.033214 437.783138,969.885078 455.130311,978.761508 C451.001277,966.240103 454.493044,956.494431 465.605613,949.524491 C461.369519,961.561105 470.737987,977.666498 493.711017,997.84067 C483.701047,985.547823 482.666013,971.05459 490.605916,954.360971 C491.418829,971.66377 499.590087,982.979702 515.119691,988.308765 C518.263146,981.33713 523.48603,973.436969 530.788344,964.608283 C532.808437,978.83019 530.873866,992.33281 524.984631,1005.11614 C544.752928,1011.97055 562.591081,1011.97055 578.499092,1005.11614 C572.092776,1022.23964 559.971888,1033.61521 542.13643,1039.24284 C566.378204,1050.3496 586.643366,1044.1158 602.931914,1020.54144 C609.147626,1044.1158 597.800193,1061.95159 568.889618,1074.04883 C597.800193,1074.04883 623.888927,1068.25137 647.155817,1056.65645 C640.520693,1065.89946 632.995317,1079.68316 624.57969,1098.00757 C640.549693,1094.77624 660.824228,1097.45586 685.403293,1106.04646 C686.178281,1107.24549 686.955483,1108.44382 687.73507,1109.64079 C669.470527,1117.59924 654.917437,1116.60874 644.075803,1106.66927 C653.031165,1121.20511 669.449762,1125.97884 693.331594,1120.99045 C672.669967,1137.44305 645.59513,1143.14508 612.107083,1138.09654 C656.161047,1151.77003 685.839891,1153.66856 701.143616,1143.79211 C682.396615,1171.79357 652.325651,1184.21294 610.930723,1181.05022 C660.851865,1209.31039 704.844597,1213.48234 742.908921,1193.56607 C731.100739,1215.58791 710.409631,1228.83435 680.835597,1233.30538 C715.908075,1242.56147 771.226482,1235.84653 846.790819,1213.16057 C845.969342,1223.64062 837.572087,1234.20937 821.599052,1244.86681 C865.360001,1233.18314 887.646932,1218.68991 888.459845,1201.38711 C896.399748,1218.08073 895.189735,1232.57396 884.829808,1244.86681 C913.486128,1224.69264 925.696242,1208.58725 921.460148,1196.55063 C932.572717,1203.52057 936.064484,1213.26624 931.93545,1225.78765 C949.282623,1216.91122 960.724458,1202.05936 966.260956,1181.23206 C971.65987,1191.24754 974.41285,1201.58969 974.519896,1212.25853 C984.886645,1201.66167 993.908494,1190.30873 1001.58544,1178.19971 C999.805077,1219.19471 985.851171,1265.23067 959.723723,1316.30761 C960.708607,1309.2269 952.908617,1302.67468 936.323752,1296.65093 C938.244357,1318.11594 933.893559,1338.04447 923.271359,1356.43651 C922.868903,1343.25792 916.254512,1335.29423 903.428185,1332.54542 C911.525559,1342.40733 909.020217,1356.87991 895.912157,1375.96316 C897.530098,1361.8584 892.698473,1348.70232 881.417282,1336.49492 C880.855292,1336.94479 880.291676,1337.39266 879.726436,1337.83849 C882.10245,1352.82065 871.441165,1366.76489 847.742581,1379.67119 C852.517804,1370.29929 855.422479,1361.86527 856.456605,1354.36915 C829.577728,1371.41259 799.530803,1383.53723 766.338804,1387.59089 C481.428667,1373.55258 355.105362,1227.85558 286.68213,1146.10176 C167.891791,991.231417 152.398324,821.326861 166.17501,721.534874 C166.734021,721.463688 241.014234,669.107965 355.105362,637 C355.030046,637.033958 351.021095,639.130562 344.869883,643.246793 C313.719129,658.397401 289.03972,674.671726 270.831654,692.06977 C278.462594,689.288297 287.207893,688.95693 297.067551,691.07567 C296.305092,692.271287 295.556695,693.486299 294.824159,694.720662 C278.212254,704.668627 264.922158,714.512117 254.953872,724.251132 C262.841972,725.457282 270.986908,729.914374 279.388679,737.622407 C279.264482,738.48118 279.149831,739.345281 279.044995,740.214705 C267.001757,740.669623 252.951118,749.62582 236.893076,767.083296 C245.614216,763.437144 259.036312,763.437144 277.159363,767.083296 C260.491182,772.387224 253.089351,784.259973 254.953872,802.701544 C264.2974,797.745246 273.371009,794.550044 282.174698,793.115936 Z" id="Combined-Shape" stroke="#000000" fill="#000000"></path>
            <path d="M1057.07303,377.211661 C1034.8241,354.046486 1011.56411,333.531602 1006.03937,331.012588 C999.925835,330.845532 993.912713,332.341284 988,335.499843 C1008.46753,354.362233 1024.87012,369.759845 1037.20777,381.692678 C1027.58375,384.349407 1018.23929,387.692756 1011,391.530543 C1011.79844,396.022544 1023.59837,404.010279 1023.67602,403.985909 C1031.36243,400.826191 1041.15667,397.859716 1051.05404,395.352061 C1060.07669,404.497688 1064.81127,409.98835 1065.2578,411.824049 C1073.31593,407.155926 1083.53722,407.486302 1083.61148,407.204316 C1079.46997,401.98476 1074.84762,396.556727 1069.97466,391.108676 C1079.25481,389.292129 1087.30595,388.12115 1092.05767,387.870019 C1092.05767,384.2019 1080.64723,375.003069 1078.3469,375.003069 C1073.04347,374.944328 1065.47754,375.73049 1057.07304,377.21166 Z" id="Combined-Shape" stroke="#000000" fill="#000000" stroke-linejoin="round"></path>
            <path d="M879.855406,404.848812 C869.550076,423.676442 872.075904,447.932232 887.432888,477.616183 C889.7756,484.494961 890.107461,495.953487 887.432888,502.066858 C876.881979,526.183463 884.841347,563.67807 911.310993,614.550678 C894.335224,594.841442 881.827682,576.42003 873.788367,559.286442 C857.653874,582.370197 859.676221,632.247992 879.855406,708.919827 C854.025424,659.701266 842.108812,613.876432 844.10557,571.445323 C821.433177,586.755171 810.09698,646.960514 810.09698,752.061353 C789.064269,688.799526 790.369927,630.460152 814.013957,577.043229 C741.415133,628.084725 732.786909,724.296255 788.129285,865.677819 C707.202597,768.60578 706.399982,668.700527 785.72144,565.962059 C771.212962,529.814884 732.881378,528.813669 670.726688,562.958412 C681.608206,544.148953 701.559879,531.892206 730.581707,526.188169 C727.709179,519.471972 702.515277,519.471972 655,526.188169 C686.928297,511.351865 715.428763,503.933713 740.501399,503.933713 C741.332791,484.31822 715.907541,478.710188 664.225651,487.109619 C677.744225,475.82748 703.169474,471.595435 740.501399,474.413483 C747.111145,464.00251 741.321103,455.895026 723.131273,450.091029 C734.711357,447.624914 756.377361,451.159708 788.129285,460.695412 C778.0031,423.464345 735.876637,404.848812 661.749896,404.848812 C701.521924,385.990101 752.276611,397.54158 814.013957,439.503251 C789.410895,412.792556 778.40718,385.958139 781.002811,359 C793.943574,402.946657 822.394268,433.717815 866.354894,451.313472 C867.354751,427.834176 871.854922,412.345957 879.855406,404.848812 Z" id="Path-6" fill="#000000"></path>
            <path d="M813.276501,564.004421 C827.863263,562.51942 855.397471,553.677679 870.039496,540.031402 C873.851062,536.479045 873.34956,522.547204 870.039496,511.862249 C864.900543,500.881509 858.937648,494 836.293973,494 C813.650298,494 789.840524,512.451704 793.345181,532.451149 C796.849839,552.450595 809.187104,564.420741 813.276501,564.004421 Z" id="Oval-2" fill="#FFFFFF"></path>
            <path d="M1159.72335,574.733666 C1160.5785,536.438836 1130.4857,547.227035 1128.38228,552.611009 C1126.5222,561.226607 1131.65379,563.118611 1139.35194,568.552488 C1147.05009,573.986364 1154.9688,576.743871 1159.72335,574.733666 Z" id="Path-7" fill="#000000"></path>
            <path d="M1221.99437,571.491067 C1222.26378,541.816059 1212.78311,550.175932 1212.12044,554.348022 C1211.53442,561.024326 1213.15112,562.490457 1215.5764,566.701217 C1218.00169,570.911976 1220.49646,573.048793 1221.99437,571.491067 Z" id="Path-7" fill="#000000" transform="translate(1217.000000, 561.000000) scale(-1, 1) translate(-1217.000000, -561.000000) "></path>
            <path d="M1104,533.539608 C1143.30149,510.806112 1162.32949,539.196872 1182.60299,577.390386 C1154.94433,486.574284 1106.21699,516.887335 1104,533.539608 Z" id="Path-8" fill="#000000"></path>
            <path d="M1205.00056,559.466629 C1217.03812,523.646572 1226.2618,525.905547 1227.92846,555.689984 C1231.51302,507.678912 1204.8596,521.488385 1205.00056,559.466629 Z" id="Path-8" fill="#000000" transform="translate(1216.630080, 542.233314) scale(-1, 1) translate(-1216.630080, -542.233314) "></path>
            <path d="M1176.54873,783 C1151.54738,791.267569 1138.77436,803.834107 1101,798.475033 C1115.45611,812.984745 1172.22568,801.607147 1176.54873,783 Z" id="Path-10" fill="#000000"></path>
            <path d="M430,620.582135 C444.183498,670.368164 480.558303,682.640831 539.124415,657.400134 C626.973583,619.539089 632.318846,581.547209 631.576788,568.436099 C631.104624,550.353518 614.679955,509.027153 646.24883,494 C623.069454,522.877418 635.212279,542.356855 637.852871,572.436099 C635.970257,595.526064 627.439495,620.582135 540.056872,663.812568 C474.907096,688.032549 438.221472,673.622405 430,620.582135 Z" id="Path-11" fill="#000000"></path>
            <path d="M700.006627,442.112727 C669.028542,446.307777 622.240886,432.806081 611.034585,432.10454 C584.702961,430.218256 561.003313,454.256502 539.10829,472.035999 C481.962905,524.137277 508.914765,554.497796 479.58603,582.546584 C468.07857,591.998231 448.883226,601.437114 422,610.863231 C448.125981,635.971357 470.458385,642.450333 488.997211,630.300159 C525.615339,612.141942 502.481823,551.803905 518.091838,521.996881 C527.418985,502.043562 531.693921,495.56344 551.363776,478.646911 C579.145032,454.754389 592.77826,442.331529 611.034585,444.334282 C667.536927,454.051214 700.005287,442.113678 700.006627,442.112727 Z" id="Path-12" fill="#000000"></path>
            <path d="M1171.40848,745.712547 C1186.10467,749.386248 1193.85544,758.028327 1183.80925,778.000235 C1182.465,753.437617 1168.41203,752.846433 1148.92909,753.050477 C1147.88251,754.919326 1145.12873,757.479808 1140.66773,760.731923 C1135.89455,757.398369 1133.0407,754.814585 1132.10618,752.98057 C1110.2843,752.996155 1082.64646,765.988652 1071,796.322044 C1074.39121,757.306834 1107.52058,743.070699 1140.05912,743.091757 C1141.94485,743.092978 1143.82588,743.105681 1145.69179,743.135969 C1146.10608,743.056306 1146.66684,742.988799 1147.3902,742.936081 C1167.38712,735.098211 1176.84936,708.33649 1176.84936,694.344797 C1176.84936,651.415509 1182.74513,625.300577 1194.53665,616 C1188.44714,625.84167 1185.2746,652.557871 1185.01903,696.148604 C1184.85277,724.507077 1169.27974,727.861138 1171.40848,745.712542 Z" id="Combined-Shape" fill="#000000"></path>
        </g>
    </g>
</svg>